<svg width="40" height="40" viewBox="0 0 40 40" fill="none" xmlns="http://www.w3.org/2000/svg">
<path d="M20 40C31.0457 40 40 31.0457 40 20C40 8.9543 31.0457 0 20 0C8.9543 0 0 8.9543 0 20C0 31.0457 8.9543 40 20 40Z" fill="#3D81E8"/>
<path d="M22.7589 28.3759L17.4736 21.1317L12.1534 28.3759H9.45825L16.1436 19.3555L10.3683 11.6238H13.1684L17.5086 17.649L21.8838 11.6238H24.5439L18.7687 19.3555L25.524 28.3759H22.7589Z" fill="white"/>
<path d="M21.1309 19.3904L26.9003 11.6238H29.5604L23.7851 19.3555L30.5405 28.3759H27.7753L21.1309 19.3962V19.3904Z" fill="white"/>
</svg>
